<svg xmlns="http://www.w3.org/2000/svg" width="700" height="420" viewBox="0 0 700 420" font-family="system-ui, -apple-system, sans-serif">
  <rect width="700" height="420" fill="#fafaf9"/>
  <text x="20" y="30" font-size="16" font-weight="600" fill="#1c1917">Evidence maturity by task, August 2026</text>

  <!-- Column headers -->
  <text x="345" y="56" text-anchor="middle" font-size="13" font-weight="600" fill="#166534">Proven</text>
  <text x="435" y="56" text-anchor="middle" font-size="13" font-weight="600" fill="#b45309">Promising</text>
  <text x="525" y="56" text-anchor="middle" font-size="13" font-weight="600" fill="#57534e">Unevaluated</text>
  <text x="615" y="56" text-anchor="middle" font-size="13" font-weight="600" fill="#9f1239">Hype</text>

  <!-- Column separators -->
  <line x1="390" y1="64" x2="390" y2="368" stroke="#e7e5e4" stroke-width="1" stroke-dasharray="3 4"/>
  <line x1="480" y1="64" x2="480" y2="368" stroke="#e7e5e4" stroke-width="1" stroke-dasharray="3 4"/>
  <line x1="570" y1="64" x2="570" y2="368" stroke="#e7e5e4" stroke-width="1" stroke-dasharray="3 4"/>

  <!-- Row 1: Code debugging (Proven) -->
  <text x="288" y="84" text-anchor="end" font-size="13" fill="#1c1917">Code debugging (SAS/R/Python)</text>
  <circle cx="345" cy="80" r="4" fill="#e7e5e4"/><circle cx="435" cy="80" r="4" fill="#e7e5e4"/><circle cx="525" cy="80" r="4" fill="#e7e5e4"/><circle cx="615" cy="80" r="4" fill="#e7e5e4"/>
  <circle cx="345" cy="80" r="6" fill="#166534"/>

  <!-- Row 2: SAS-to-R migration (Proven) -->
  <text x="288" y="112" text-anchor="end" font-size="13" fill="#1c1917">SAS&#8594;R migration</text>
  <circle cx="345" cy="108" r="4" fill="#e7e5e4"/><circle cx="435" cy="108" r="4" fill="#e7e5e4"/><circle cx="525" cy="108" r="4" fill="#e7e5e4"/><circle cx="615" cy="108" r="4" fill="#e7e5e4"/>
  <circle cx="345" cy="108" r="6" fill="#166534"/>

  <!-- Row 3: ADaM derivation code (Proven) -->
  <text x="288" y="140" text-anchor="end" font-size="13" fill="#1c1917">ADaM derivation code (local models)</text>
  <circle cx="345" cy="136" r="4" fill="#e7e5e4"/><circle cx="435" cy="136" r="4" fill="#e7e5e4"/><circle cx="525" cy="136" r="4" fill="#e7e5e4"/><circle cx="615" cy="136" r="4" fill="#e7e5e4"/>
  <circle cx="345" cy="136" r="6" fill="#166534"/>

  <!-- Row 4: TLF template generation (Proven) -->
  <text x="288" y="168" text-anchor="end" font-size="13" fill="#1c1917">TLF template generation</text>
  <circle cx="345" cy="164" r="4" fill="#e7e5e4"/><circle cx="435" cy="164" r="4" fill="#e7e5e4"/><circle cx="525" cy="164" r="4" fill="#e7e5e4"/><circle cx="615" cy="164" r="4" fill="#e7e5e4"/>
  <circle cx="345" cy="164" r="6" fill="#166534"/>

  <!-- Row 5: QC programming (Proven) -->
  <text x="288" y="196" text-anchor="end" font-size="13" fill="#1c1917">QC programming</text>
  <circle cx="345" cy="192" r="4" fill="#e7e5e4"/><circle cx="435" cy="192" r="4" fill="#e7e5e4"/><circle cx="525" cy="192" r="4" fill="#e7e5e4"/><circle cx="615" cy="192" r="4" fill="#e7e5e4"/>
  <circle cx="345" cy="192" r="6" fill="#166534"/>

  <!-- Row 6: Cross-domain validation (Proven) -->
  <text x="288" y="224" text-anchor="end" font-size="13" fill="#1c1917">Cross-domain validation</text>
  <circle cx="345" cy="220" r="4" fill="#e7e5e4"/><circle cx="435" cy="220" r="4" fill="#e7e5e4"/><circle cx="525" cy="220" r="4" fill="#e7e5e4"/><circle cx="615" cy="220" r="4" fill="#e7e5e4"/>
  <circle cx="345" cy="220" r="6" fill="#166534"/>

  <!-- Row 7: Specification generation (Promising) -->
  <text x="288" y="252" text-anchor="end" font-size="13" fill="#1c1917">Specification generation</text>
  <circle cx="345" cy="248" r="4" fill="#e7e5e4"/><circle cx="435" cy="248" r="4" fill="#e7e5e4"/><circle cx="525" cy="248" r="4" fill="#e7e5e4"/><circle cx="615" cy="248" r="4" fill="#e7e5e4"/>
  <circle cx="435" cy="248" r="6" fill="#b45309"/>

  <!-- Row 8: NL data querying (Promising) -->
  <text x="288" y="280" text-anchor="end" font-size="13" fill="#1c1917">Natural-language data querying</text>
  <circle cx="345" cy="276" r="4" fill="#e7e5e4"/><circle cx="435" cy="276" r="4" fill="#e7e5e4"/><circle cx="525" cy="276" r="4" fill="#e7e5e4"/><circle cx="615" cy="276" r="4" fill="#e7e5e4"/>
  <circle cx="435" cy="276" r="6" fill="#b45309"/>

  <!-- Row 9: Synthetic ADaM data (Promising) -->
  <text x="288" y="308" text-anchor="end" font-size="13" fill="#1c1917">Synthetic ADaM data</text>
  <circle cx="345" cy="304" r="4" fill="#e7e5e4"/><circle cx="435" cy="304" r="4" fill="#e7e5e4"/><circle cx="525" cy="304" r="4" fill="#e7e5e4"/><circle cx="615" cy="304" r="4" fill="#e7e5e4"/>
  <circle cx="435" cy="304" r="6" fill="#b45309"/>

  <!-- Row 10: SDTM mapping (Unevaluated) -->
  <text x="288" y="336" text-anchor="end" font-size="13" fill="#1c1917">SDTM mapping</text>
  <circle cx="345" cy="332" r="4" fill="#e7e5e4"/><circle cx="435" cy="332" r="4" fill="#e7e5e4"/><circle cx="525" cy="332" r="4" fill="#e7e5e4"/><circle cx="615" cy="332" r="4" fill="#e7e5e4"/>
  <circle cx="525" cy="332" r="6" fill="#57534e"/>

  <!-- Row 11: End-to-end autonomous submission (Hype) -->
  <text x="288" y="364" text-anchor="end" font-size="13" fill="#1c1917">End-to-end autonomous submission</text>
  <circle cx="345" cy="360" r="4" fill="#e7e5e4"/><circle cx="435" cy="360" r="4" fill="#e7e5e4"/><circle cx="525" cy="360" r="4" fill="#e7e5e4"/><circle cx="615" cy="360" r="4" fill="#e7e5e4"/>
  <circle cx="615" cy="360" r="6" fill="#9f1239"/>

  <line x1="20" y1="382" x2="680" y2="382" stroke="#d6d3d1" stroke-width="1"/>
  <text x="20" y="402" font-size="12.5" fill="#1c1917">Tier = strength of published evidence, not eventual value. &#8220;Proven&#8221; means proven within the stated</text>
  <text x="20" y="418" font-size="12.5" fill="#1c1917">benchmark scope; movement between tiers requires published evaluation, not better demos.</text>
</svg>
